<svg width="60" height="60" viewBox="0 0 60 60" fill="none" xmlns="http://www.w3.org/2000/svg">
<g clip-path="url(#clip0_361_29)">
<rect width="60" height="60" fill="#020202"/>
<path d="M18.3314 51.28C16.6514 51.28 15.3714 50.86 14.4914 50.02C13.6514 49.18 13.2314 48.1 13.2314 46.78C13.2314 45.54 13.5714 44.42 14.2514 43.42C14.9314 42.38 15.8114 41.56 16.8914 40.96C18.0114 40.32 19.1514 40 20.3114 40C20.7914 40 21.2714 40.06 21.7514 40.18C22.2314 40.26 22.6914 40.42 23.1314 40.66V15.1L46.7714 9.1V38.56C46.7714 40.72 46.3114 42.58 45.3914 44.14C44.5114 45.66 43.3514 46.84 41.9114 47.68C40.4714 48.48 38.9514 48.88 37.3514 48.88C35.6714 48.88 34.3914 48.46 33.5114 47.62C32.6314 46.78 32.1914 45.7 32.1914 44.38C32.1914 43.14 32.5314 42.02 33.2114 41.02C33.9314 39.98 34.8314 39.16 35.9114 38.56C36.9914 37.92 38.1314 37.6 39.3314 37.6C39.8114 37.6 40.2914 37.66 40.7714 37.78C41.2514 37.86 41.6914 38.02 42.0914 38.26V13.9L43.8914 15.52L25.7114 20.56L27.7514 17.74V40.96C27.7514 43.12 27.2914 44.98 26.3714 46.54C25.4914 48.06 24.3314 49.22 22.8914 50.02C21.4514 50.86 19.9314 51.28 18.3314 51.28Z" fill="#F231A5"/>
</g>
<defs>
<clipPath id="clip0_361_29">
<rect width="60" height="60" fill="white"/>
</clipPath>
</defs>
</svg>
