<svg width="116" height="22" viewBox="0 0 116 22" fill="none" xmlns="http://www.w3.org/2000/svg">
<path d="M6.38 17.76C5.82 17.76 5.39333 17.62 5.1 17.34C4.82 17.06 4.68 16.7 4.68 16.26C4.68 15.8467 4.79333 15.4733 5.02 15.14C5.24667 14.7933 5.54 14.52 5.9 14.32C6.27333 14.1067 6.65333 14 7.04 14C7.2 14 7.36 14.02 7.52 14.06C7.68 14.0867 7.83333 14.14 7.98 14.22V5.7L15.86 3.7V13.52C15.86 14.24 15.7067 14.86 15.4 15.38C15.1067 15.8867 14.72 16.28 14.24 16.56C13.76 16.8267 13.2533 16.96 12.72 16.96C12.16 16.96 11.7333 16.82 11.44 16.54C11.1467 16.26 11 15.9 11 15.46C11 15.0467 11.1133 14.6733 11.34 14.34C11.58 13.9933 11.88 13.72 12.24 13.52C12.6 13.3067 12.98 13.2 13.38 13.2C13.54 13.2 13.7 13.22 13.86 13.26C14.02 13.2867 14.1667 13.34 14.3 13.42V5.3L14.9 5.84L8.84 7.52L9.52 6.58V14.32C9.52 15.04 9.36667 15.66 9.06 16.18C8.76667 16.6867 8.38 17.0733 7.9 17.34C7.42 17.62 6.91333 17.76 6.38 17.76ZM22.0529 6.81818H24.7077L27.5117 13.6591H27.631L30.435 6.81818H33.0898V17H31.0018V10.3729H30.9173L28.2823 16.9503H26.8604L24.2255 10.348H24.141V17H22.0529V6.81818ZM39.7207 13.7486V9.36364H41.8386V17H39.8052V15.6129H39.7257C39.5533 16.0604 39.2666 16.42 38.8656 16.6918C38.4679 16.9635 37.9823 17.0994 37.4089 17.0994C36.8985 17.0994 36.4494 16.9834 36.0616 16.7514C35.6738 16.5194 35.3706 16.1896 35.1518 15.7621C34.9364 15.3345 34.827 14.8224 34.8237 14.2259V9.36364H36.9416V13.848C36.9449 14.2988 37.0659 14.6551 37.3045 14.9169C37.5431 15.1787 37.863 15.3097 38.264 15.3097C38.5192 15.3097 38.7579 15.2517 38.9799 15.1357C39.202 15.0163 39.381 14.8407 39.5169 14.6087C39.6561 14.3767 39.724 14.09 39.7207 13.7486ZM49.8864 11.5412L47.9474 11.6605C47.9143 11.4948 47.843 11.3456 47.7337 11.2131C47.6243 11.0772 47.4801 10.9695 47.3011 10.8899C47.1255 10.8071 46.915 10.7656 46.6697 10.7656C46.3416 10.7656 46.0649 10.8352 45.8395 10.9744C45.6141 11.1103 45.5014 11.2926 45.5014 11.5213C45.5014 11.7036 45.5743 11.8577 45.7202 11.9837C45.866 12.1096 46.1162 12.2107 46.4709 12.2869L47.853 12.5653C48.5954 12.7178 49.1489 12.9631 49.5135 13.3011C49.8781 13.6392 50.0604 14.0833 50.0604 14.6335C50.0604 15.134 49.9129 15.5732 49.6179 15.951C49.3262 16.3288 48.9252 16.6238 48.4148 16.8359C47.9077 17.0447 47.3227 17.1491 46.6598 17.1491C45.6489 17.1491 44.8435 16.9387 44.2436 16.5178C43.647 16.0935 43.2973 15.5168 43.1946 14.7876L45.2777 14.6783C45.3407 14.9865 45.4931 15.2218 45.7351 15.3842C45.977 15.5433 46.2869 15.6229 46.6648 15.6229C47.036 15.6229 47.3343 15.5516 47.5597 15.4091C47.7884 15.2633 47.9044 15.076 47.9077 14.8473C47.9044 14.6551 47.8232 14.4976 47.6641 14.375C47.505 14.2491 47.2597 14.1529 46.9283 14.0866L45.6058 13.8232C44.8601 13.674 44.3049 13.4155 43.9403 13.0476C43.5791 12.6797 43.3984 12.2107 43.3984 11.6406C43.3984 11.1501 43.531 10.7275 43.7962 10.3729C44.0646 10.0182 44.4408 9.74479 44.9247 9.55256C45.4119 9.36032 45.982 9.2642 46.6349 9.2642C47.5994 9.2642 48.3584 9.46804 48.9119 9.87571C49.4688 10.2834 49.7936 10.8385 49.8864 11.5412ZM51.394 17V9.36364H53.5119V17H51.394ZM52.4579 8.37926C52.1431 8.37926 51.8729 8.27486 51.6475 8.06605C51.4255 7.85393 51.3145 7.60038 51.3145 7.3054C51.3145 7.01373 51.4255 6.76349 51.6475 6.55469C51.8729 6.34257 52.1431 6.23651 52.4579 6.23651C52.7728 6.23651 53.0413 6.34257 53.2633 6.55469C53.4887 6.76349 53.6014 7.01373 53.6014 7.3054C53.6014 7.60038 53.4887 7.85393 53.2633 8.06605C53.0413 8.27486 52.7728 8.37926 52.4579 8.37926ZM58.6587 17.1491C57.8765 17.1491 57.2037 16.9834 56.6403 16.652C56.0801 16.3172 55.6493 15.8532 55.3477 15.2599C55.0494 14.6667 54.9002 13.9839 54.9002 13.2116C54.9002 12.4295 55.051 11.7434 55.3526 11.1534C55.6576 10.5601 56.0901 10.0978 56.6502 9.76633C57.2103 9.43158 57.8765 9.2642 58.6488 9.2642C59.315 9.2642 59.8983 9.38518 60.3988 9.62713C60.8993 9.86908 61.2953 10.2088 61.587 10.6463C61.8787 11.0838 62.0394 11.5975 62.0692 12.1875H60.0707C60.0143 11.8063 59.8652 11.4998 59.6232 11.2678C59.3846 11.0324 59.0714 10.9148 58.6836 10.9148C58.3555 10.9148 58.0688 11.0043 57.8235 11.1832C57.5816 11.3589 57.3926 11.6158 57.2567 11.9538C57.1209 12.2919 57.0529 12.7012 57.0529 13.1818C57.0529 13.669 57.1192 14.0833 57.2518 14.4247C57.3877 14.7661 57.5782 15.0263 57.8235 15.2053C58.0688 15.3842 58.3555 15.4737 58.6836 15.4737C58.9255 15.4737 59.1426 15.424 59.3349 15.3246C59.5304 15.2251 59.6912 15.081 59.8171 14.892C59.9464 14.6998 60.0309 14.4695 60.0707 14.201H62.0692C62.0361 14.7843 61.877 15.2981 61.592 15.7422C61.3103 16.183 60.9208 16.5277 60.4237 16.7763C59.9265 17.0249 59.3382 17.1491 58.6587 17.1491Z" fill="#F231A5"/>
<path d="M72.2287 9.74645C72.1889 9.34541 72.0182 9.03385 71.7166 8.81179C71.415 8.58972 71.0057 8.47869 70.4886 8.47869C70.1373 8.47869 69.8407 8.52841 69.5987 8.62784C69.3568 8.72396 69.1712 8.85819 69.0419 9.03054C68.916 9.20289 68.853 9.39844 68.853 9.61719C68.8464 9.79948 68.8845 9.95857 68.9673 10.0945C69.0535 10.2304 69.1712 10.348 69.3203 10.4474C69.4695 10.5436 69.6418 10.6281 69.8374 10.701C70.0329 10.7706 70.2417 10.8303 70.4638 10.88L71.3786 11.0987C71.8227 11.1982 72.2304 11.3307 72.6016 11.4964C72.9728 11.6622 73.2943 11.866 73.5661 12.108C73.8378 12.3499 74.0483 12.6349 74.1974 12.9631C74.3499 13.2912 74.4278 13.6674 74.4311 14.0916C74.4278 14.7147 74.2687 15.255 73.9538 15.7124C73.6423 16.1664 73.1915 16.5194 72.6016 16.7713C72.0149 17.0199 71.3073 17.1442 70.4787 17.1442C69.6567 17.1442 68.9408 17.0182 68.331 16.7663C67.7244 16.5144 67.2505 16.1416 66.9091 15.6477C66.571 15.1506 66.3937 14.5357 66.3771 13.8033H68.4602C68.4834 14.1446 68.5812 14.4297 68.7536 14.6584C68.9292 14.8838 69.1629 15.0545 69.4545 15.1705C69.7495 15.2831 70.0826 15.3395 70.4538 15.3395C70.8184 15.3395 71.1349 15.2865 71.4034 15.1804C71.6752 15.0743 71.8857 14.9268 72.0348 14.7379C72.1839 14.549 72.2585 14.3319 72.2585 14.0866C72.2585 13.858 72.1906 13.6657 72.0547 13.5099C71.9221 13.3542 71.7266 13.2216 71.468 13.1122C71.2128 13.0028 70.8996 12.9034 70.5284 12.8139L69.4197 12.5355C68.5613 12.3267 67.8835 12.0002 67.3864 11.5561C66.8892 11.112 66.6423 10.5137 66.6456 9.76136C66.6423 9.14489 66.8063 8.6063 67.1378 8.1456C67.4725 7.6849 67.9316 7.32528 68.5149 7.06676C69.0982 6.80824 69.7611 6.67898 70.5036 6.67898C71.2592 6.67898 71.9188 6.80824 72.4822 7.06676C73.049 7.32528 73.4898 7.6849 73.8047 8.1456C74.1196 8.6063 74.282 9.13991 74.2919 9.74645H72.2287ZM79.9011 9.36364V10.9545H75.3024V9.36364H79.9011ZM76.3464 7.53409H78.4643V14.6534C78.4643 14.849 78.4941 15.0014 78.5538 15.1108C78.6135 15.2169 78.6963 15.2914 78.8024 15.3345C78.9118 15.3776 79.0377 15.3991 79.1802 15.3991C79.2797 15.3991 79.3791 15.3909 79.4785 15.3743C79.5779 15.3544 79.6542 15.3395 79.7072 15.3295L80.0403 16.9055C79.9342 16.9387 79.7851 16.9768 79.5929 17.0199C79.4006 17.0663 79.167 17.0945 78.8919 17.1044C78.3815 17.1243 77.934 17.0563 77.5495 16.9006C77.1684 16.7448 76.8717 16.5028 76.6596 16.1747C76.4475 15.8466 76.3431 15.4323 76.3464 14.9318V7.53409ZM86.1777 13.7486V9.36364H88.2956V17H86.2623V15.6129H86.1827C86.0104 16.0604 85.7237 16.42 85.3226 16.6918C84.9249 16.9635 84.4393 17.0994 83.8659 17.0994C83.3555 17.0994 82.9064 16.9834 82.5186 16.7514C82.1309 16.5194 81.8276 16.1896 81.6088 15.7621C81.3934 15.3345 81.284 14.8224 81.2807 14.2259V9.36364H83.3986V13.848C83.4019 14.2988 83.5229 14.6551 83.7615 14.9169C84.0002 15.1787 84.32 15.3097 84.7211 15.3097C84.9763 15.3097 85.2149 15.2517 85.437 15.1357C85.659 15.0163 85.838 14.8407 85.9739 14.6087C86.1131 14.3767 86.181 14.09 86.1777 13.7486ZM92.8036 17.1243C92.2236 17.1243 91.6983 16.9751 91.2276 16.6768C90.7603 16.3752 90.3891 15.9328 90.114 15.3494C89.8422 14.7628 89.7063 14.0436 89.7063 13.1918C89.7063 12.3168 89.8472 11.5893 90.1289 11.0092C90.4106 10.4259 90.7852 9.99006 91.2525 9.7017C91.7231 9.41004 92.2385 9.2642 92.7987 9.2642C93.2262 9.2642 93.5825 9.33712 93.8675 9.48295C94.1559 9.62547 94.3879 9.80445 94.5636 10.0199C94.7425 10.232 94.8784 10.4408 94.9712 10.6463H95.0359V6.81818H97.1488V17H95.0607V15.777H94.9712C94.8718 15.9891 94.7309 16.1996 94.5487 16.4084C94.3697 16.6139 94.136 16.7846 93.8477 16.9205C93.5626 17.0563 93.2146 17.1243 92.8036 17.1243ZM93.4748 15.4389C93.8162 15.4389 94.1045 15.3461 94.3398 15.1605C94.5785 14.9716 94.7608 14.7081 94.8867 14.37C95.016 14.032 95.0806 13.6359 95.0806 13.1818C95.0806 12.7277 95.0176 12.3333 94.8917 11.9986C94.7657 11.6638 94.5835 11.4053 94.3448 11.223C94.1062 11.0407 93.8162 10.9496 93.4748 10.9496C93.1268 10.9496 92.8335 11.044 92.5948 11.233C92.3562 11.4219 92.1755 11.6837 92.0529 12.0185C91.9303 12.3532 91.869 12.741 91.869 13.1818C91.869 13.6259 91.9303 14.0187 92.0529 14.3601C92.1789 14.6982 92.3595 14.9633 92.5948 15.1555C92.8335 15.3445 93.1268 15.4389 93.4748 15.4389ZM98.8901 17V9.36364H101.008V17H98.8901ZM99.954 8.37926C99.6391 8.37926 99.369 8.27486 99.1436 8.06605C98.9216 7.85393 98.8105 7.60038 98.8105 7.3054C98.8105 7.01373 98.9216 6.76349 99.1436 6.55469C99.369 6.34257 99.6391 6.23651 99.954 6.23651C100.269 6.23651 100.537 6.34257 100.759 6.55469C100.985 6.76349 101.097 7.01373 101.097 7.3054C101.097 7.60038 100.985 7.85393 100.759 8.06605C100.537 8.27486 100.269 8.37926 99.954 8.37926ZM106.155 17.1491C105.383 17.1491 104.715 16.9851 104.151 16.657C103.591 16.3255 103.159 15.8648 102.854 15.2749C102.549 14.6816 102.396 13.9938 102.396 13.2116C102.396 12.4228 102.549 11.7334 102.854 11.1435C103.159 10.5502 103.591 10.0895 104.151 9.76136C104.715 9.42992 105.383 9.2642 106.155 9.2642C106.927 9.2642 107.593 9.42992 108.153 9.76136C108.717 10.0895 109.151 10.5502 109.456 11.1435C109.761 11.7334 109.913 12.4228 109.913 13.2116C109.913 13.9938 109.761 14.6816 109.456 15.2749C109.151 15.8648 108.717 16.3255 108.153 16.657C107.593 16.9851 106.927 17.1491 106.155 17.1491ZM106.165 15.5085C106.516 15.5085 106.809 15.4091 107.045 15.2102C107.28 15.008 107.457 14.733 107.577 14.3849C107.699 14.0369 107.761 13.6409 107.761 13.1967C107.761 12.7526 107.699 12.3565 107.577 12.0085C107.457 11.6605 107.28 11.3854 107.045 11.1832C106.809 10.9811 106.516 10.88 106.165 10.88C105.81 10.88 105.512 10.9811 105.27 11.1832C105.031 11.3854 104.851 11.6605 104.728 12.0085C104.609 12.3565 104.549 12.7526 104.549 13.1967C104.549 13.6409 104.609 14.0369 104.728 14.3849C104.851 14.733 105.031 15.008 105.27 15.2102C105.512 15.4091 105.81 15.5085 106.165 15.5085Z" fill="white"/>
</svg>
